<?xml version="1.0" encoding="UTF-8"?>
<!-- Created with Inkscape (http://www.inkscape.org/) -->
<svg width="64" height="64" version="1.1" viewBox="0 0 16.933 16.933" xmlns="http://www.w3.org/2000/svg">
 <circle cx="8.4667" cy="8.4667" r="8.3192" fill="#333" stroke-width=".26458"/>
 <path d="m6.006 10.836q0.51171 0 0.77868-0.37377 0.27143-0.37377 0.27143-1.0857 0-0.71194-0.27143-1.0857-0.26698-0.37377-0.77868-0.37377t-0.78758 0.37822q-0.27143 0.37377-0.27143 1.0813 0 0.70749 0.27143 1.0857 0.27588 0.37377 0.78758 0.37377zm-1.059-3.226q0.32927-0.43606 0.72974-0.64075 0.40047-0.20913 0.92107-0.20913 0.92107 0 1.5129 0.73419 0.5918 0.72974 0.5918 1.8822 0 1.1525-0.5918 1.8866-0.5918 0.72974-1.5129 0.72974-0.52061 0-0.92107-0.20468-0.40047-0.20913-0.72974-0.6452v0.72084h-1.593v-6.9236h1.593zm8.6323 0.6274q-0.20913-0.097892-0.41826-0.14239-0.20468-0.048946-0.41382-0.048946-0.61405 0-0.94777 0.39602-0.32927 0.39157-0.32927 1.1258v2.296h-1.593v-4.9836h1.593v0.81873q0.30702-0.48946 0.70304-0.71194 0.40047-0.22693 0.95667-0.22693 0.08009 0 0.17354 0.0089 0.09344 0.00445 0.27143 0.026698z" fill="#b3b3b3" stroke-width=".42716" aria-label="br"/>
</svg>
